{
    "accessors" : [
        {
            "bufferView" : 0,
            "componentType" : 5123,
            "count" : 5994,
            "max" : [
                1191
            ],
            "min" : [
                0
            ],
            "type" : "SCALAR"
        },
        {
            "bufferView" : 1,
            "componentType" : 5126,
            "count" : 1192,
            "max" : [
                4.9523420333862305,
                1.9030179977416992,
                0.0031220000237226486
            ],
            "min" : [
                -4.9523420333862305,
                -1.9030179977416992,
                -21.439725875854492
            ],
            "type" : "VEC3"
        },
        {
            "bufferView" : 2,
            "componentType" : 5126,
            "count" : 1192,
            "max" : [
                0.999603271484375,
                0.999969482421875,
                0.999969482421875
            ],
            "min" : [
                -0.999603271484375,
                -0.999969482421875,
                -0.999542236328125
            ],
            "type" : "VEC3"
        },
        {
            "bufferView" : 3,
            "componentType" : 5126,
            "count" : 1192,
            "max" : [
                0.9987339973449707,
                0.9924980001524091
            ],
            "min" : [
                0.005537999793887138,
                0.0018110275268554688
            ],
            "type" : "VEC2"
        },
        {
            "bufferView" : 4,
            "componentType" : 5126,
            "count" : 1192,
            "max" : [
                0.6603610515594482,
                2.2540125846862793,
                1.2709312438964844
            ],
            "min" : [
                -1.8294159173965454,
                -0.011913597583770752,
                -0.1595020294189453
            ],
            "type" : "VEC3"
        },
        {
            "bufferView" : 5,
            "componentType" : 5126,
            "count" : 1192,
            "max" : [
                0.4144623577594757,
                0.5244190692901611,
                0.810788631439209
            ],
            "min" : [
                -0.45494791865348816,
                -0.5373782515525818,
                -0.5540872812271118
            ],
            "type" : "VEC3"
        }
    ],
    "asset" : {
        "generator" : "Khronos Blender glTF 2.0 exporter",
        "version" : "2.0"
    },
    "bufferViews" : [
        {
            "buffer" : 0,
            "byteLength" : 11988,
            "byteOffset" : 0,
            "target" : 34963
        },
        {
            "buffer" : 0,
            "byteLength" : 14304,
            "byteOffset" : 11988,
            "target" : 34962
        },
        {
            "buffer" : 0,
            "byteLength" : 14304,
            "byteOffset" : 26292,
            "target" : 34962
        },
        {
            "buffer" : 0,
            "byteLength" : 9536,
            "byteOffset" : 40596,
            "target" : 34962
        },
        {
            "buffer" : 0,
            "byteLength" : 14304,
            "byteOffset" : 50132
        },
        {
            "buffer" : 0,
            "byteLength" : 14304,
            "byteOffset" : 64436
        }
    ],
    "buffers" : [
        {
            "byteLength" : 78740,
            "uri" : "data:application/octet-stream;base64,"
        }
    ],
    "images" : [
        {
            "mimeType" : "image/png",
            "name" : "body_texture",
            "uri" : "data:image/png;base64,"
        }
    ],
    "materials" : [
        {
            "name" : "Material.001",
            "pbrMetallicRoughness" : {
                "baseColorTexture" : {
                    "index" : 0
                }
            }
        }
    ],
    "meshes" : [
        {
            "extras" : {
                "targetNames" : [
                    "Chest"
                ]
            },
            "name" : "scene_0001:polySurface42",
            "primitives" : [
                {
                    "attributes" : {
                        "NORMAL" : 2,
                        "POSITION" : 1,
                        "TEXCOORD_0" : 3
                    },
                    "indices" : 0,
                    "material" : 0,
                    "targets" : [
                        {
                            "NORMAL" : 5,
                            "POSITION" : 4
                        }
                    ]
                }
            ],
            "weights" : [
                0.0
            ]
        }
    ],
    "nodes" : [
        {
            "mesh" : 0,
            "name" : "scene_0001:polySurface42",
            "rotation" : [
                0.7071068286895752,
                0.0,
                -0.0,
                0.7071067094802856
            ],
            "scale" : [
                6.057739734649658,
                6.568513870239258,
                7.928051471710205
            ]
        }
    ],
    "samplers" : [
        {}
    ],
    "scene" : 0,
    "scenes" : [
        {
            "name" : "Scene",
            "nodes" : [
                0
            ]
        }
    ],
    "textures" : [
        {
            "sampler" : 0,
            "source" : 0
        }
    ]
}
